<svg fill="none" height="512" viewBox="0 0 20 20" width="512" xmlns="http://www.w3.org/2000/svg"><g clip-rule="evenodd" fill="rgb(0,0,0)" fill-rule="evenodd"><path d="m9.38268 3.07615c.37368.15478.61732.51942.61732.92388v11.99997c0 .4045-.24364.7691-.61732.9239-.37367.1548-.80379.0692-1.08979-.2168l-3.7071-3.7071h-2.58579c-.55228 0-1-.4477-1-1v-3.99997c0-.55229.44772-1 1-1h2.58579l3.7071-3.70711c.286-.286.71612-.37155 1.08979-.21677z"/><path d="m12.2929 7.29289c.3905-.39052 1.0237-.39052 1.4142 0l1.2929 1.2929 1.2929-1.2929c.3905-.39052 1.0237-.39052 1.4142 0 .3905.39053.3905 1.02369 0 1.41422l-1.2929 1.29289 1.2929 1.2929c.3905.3905.3905 1.0237 0 1.4142s-1.0237.3905-1.4142 0l-1.2929-1.2929-1.2929 1.2929c-.3905.3905-1.0237.3905-1.4142 0s-.3905-1.0237 0-1.4142l1.2929-1.2929-1.2929-1.29289c-.3905-.39053-.3905-1.02369 0-1.41422z"/></g></svg>