<?xml version="1.0" encoding="UTF-8" standalone="no"?>
<!-- Created with Inkscape (http://www.inkscape.org/) -->

<svg
   version="1.1"
   id="svg105"
   xml:space="preserve"
   width="682.66669"
   height="682.66669"
   viewBox="0 0 682.66669 682.66669"
   xmlns="http://www.w3.org/2000/svg"
   xmlns:svg="http://www.w3.org/2000/svg"><defs
     id="defs109"><clipPath
       clipPathUnits="userSpaceOnUse"
       id="clipPath119"><path
         d="M 0,512 H 512 V 0 H 0 Z"
         id="path117" /></clipPath></defs><g
     id="g111"
     transform="matrix(1.3333333,0,0,-1.3333333,0,682.66667)"><g
       id="g113"><g
         id="g115"
         clip-path="url(#clipPath119)"><g
           id="g121"
           transform="translate(336.5674,7.5)"><path
             d="m 0,0 h -161.135 c -92.746,0 -167.932,75.186 -167.932,167.933 v 161.134 c 0,92.747 75.186,167.933 167.932,167.933 H 0 c 92.747,0 167.933,-75.186 167.933,-167.933 V 167.933 C 167.933,75.186 92.747,0 0,0 Z"
             style="fill:none;stroke:#000000;stroke-width:15;stroke-linecap:round;stroke-linejoin:round;stroke-miterlimit:10;stroke-dasharray:none;stroke-opacity:1"
             id="path123" /></g><g
           id="g125"
           transform="translate(35.5,221.0493)"><path
             d="m 0,0 v 115.518 c 0,77.159 62.773,139.933 139.933,139.933 H 301.067 C 378.227,255.451 441,192.677 441,115.518 V -45.617 c 0,-77.159 -62.773,-139.932 -139.933,-139.932 H 139.933 C 62.773,-185.549 0,-122.776 0,-45.617 v 10.398"
             style="fill:none;stroke:#000000;stroke-width:15;stroke-linecap:round;stroke-linejoin:round;stroke-miterlimit:10;stroke-dasharray:none;stroke-opacity:1"
             id="path127" /></g><g
           id="g129"
           transform="translate(209.9741,161.2295)"><path
             d="m 0,0 h -23.318 c -12.478,0 -22.593,10.115 -22.593,22.592 v 144.357 c 0,12.477 10.115,22.592 22.593,22.592 H 0 c 12.478,0 22.592,-10.115 22.592,-22.592 V 22.592 C 22.592,10.115 12.478,0 0,0 Z"
             style="fill:none;stroke:#000000;stroke-width:15;stroke-linecap:round;stroke-linejoin:round;stroke-miterlimit:10;stroke-dasharray:none;stroke-opacity:1"
             id="path131" /></g><g
           id="g133"
           transform="translate(279.4336,305.0928)"><path
             d="m 0,0 v 23.085 c 0,12.478 10.115,22.593 22.593,22.593 h 23.318 c 12.477,0 22.592,-10.115 22.592,-22.593 v -144.356 c 0,-12.477 -10.115,-22.592 -22.592,-22.592 H 22.593 C 10.115,-143.863 0,-133.748 0,-121.271 v 86.03"
             style="fill:none;stroke:#000000;stroke-width:15;stroke-linecap:round;stroke-linejoin:round;stroke-miterlimit:10;stroke-dasharray:none;stroke-opacity:1"
             id="path135" /></g><g
           id="g137"
           transform="translate(218.7148,242.1484)"><path
             d="M 0,0 H -54.651 V 27.703 H 0 c 7.65,0 13.852,-6.202 13.852,-13.851 C 13.852,6.202 7.65,0 0,0 Z"
             style="fill:none;stroke:#000000;stroke-width:15;stroke-linecap:round;stroke-linejoin:round;stroke-miterlimit:10;stroke-dasharray:none;stroke-opacity:1"
             id="path139" /></g></g></g></g></svg>
