<?xml version="1.0" encoding="UTF-8"?>
<svg xmlns="http://www.w3.org/2000/svg" xmlns:xlink="http://www.w3.org/1999/xlink" version="1.1" id="Capa_1" x="0px" y="0px" viewBox="0 0 512 512" style="enable-background:new 0 0 512 512;" xml:space="preserve" width="512" height="512">
<g>
	<path style="fill:none;stroke:#000000;stroke-width:15;stroke-linecap:round;stroke-linejoin:round;stroke-miterlimit:10;" d="&#10;&#9;&#9;M198.982,266.504v42.233c-12.26,1.002-25.944,7.494-37.246,18.796c-19.971,19.971-24.939,47.383-11.097,61.226&#10;&#9;&#9;c13.843,13.843,41.254,8.875,61.226-11.097c12.192-12.192,18.781-27.154,18.923-40.112l0,0v-0.005&#10;&#9;&#9;c0.004-0.408,0.013-191.242,0.013-191.242c0.001-10.073-10.138-16.989-19.516-13.312L76.62,185.789&#10;&#9;&#9;c-5.476,2.147-9.079,7.429-9.079,13.311v139.162c-12.26,1.002-25.944,7.494-37.246,18.796&#10;&#9;&#9;c-19.971,19.971-24.939,47.383-11.097,61.226c13.843,13.843,41.254,8.875,61.226-11.097c12.193-12.193,18.781-27.154,18.923-40.112&#10;&#9;&#9;l0,0v-0.005c0.004-0.409,0-137.94,0-137.94l99.635-36.358v37.816"/>
	
		<line style="fill:none;stroke:#000000;stroke-width:15;stroke-linecap:round;stroke-linejoin:round;stroke-miterlimit:10;" x1="99.347" y1="266.04" x2="198.982" y2="230.589"/>
	<path style="fill:none;stroke:#000000;stroke-width:15;stroke-linecap:round;stroke-linejoin:round;stroke-miterlimit:10;" d="&#10;&#9;&#9;M390.279,193.651V18.262l-17.432-9.553c-6.47-3.546-14.374,1.136-14.374,8.513v148.844c-12.26,1.002-25.944,7.494-37.246,18.796&#10;&#9;&#9;c-19.971,19.971-24.939,47.383-11.097,61.226c13.843,13.843,41.254,8.875,61.226-11.097&#10;&#9;&#9;C383.935,222.412,390.555,206.884,390.279,193.651z"/>
	<path style="fill:none;stroke:#000000;stroke-width:15;stroke-linecap:round;stroke-linejoin:round;stroke-miterlimit:10;" d="&#10;&#9;&#9;M390.279,18.262c0,0,33.5,14.855,37.481,50.683c3.981,35.828,18.578,52.329,23.886,55.69"/>
	<path style="fill:none;stroke:#000000;stroke-width:15;stroke-linecap:round;stroke-linejoin:round;stroke-miterlimit:10;" d="&#10;&#9;&#9;M78.333,81.427l17.776,7.531c5.948,2.52,12.439-2.196,11.881-8.632l-1.669-19.233l12.655-14.579&#10;&#9;&#9;c4.234-4.878,1.755-12.509-4.538-13.966L95.63,28.192l-9.955-16.541c-3.331-5.534-11.354-5.534-14.685,0l-9.955,16.541&#10;&#9;&#9;l-18.808,4.356c-6.293,1.457-8.772,9.088-4.538,13.966l12.655,14.579l-1.669,19.233c-0.558,6.435,5.933,11.151,11.881,8.632&#10;&#9;&#9;L78.333,81.427z"/>
	<path style="fill:none;stroke:#000000;stroke-width:15;stroke-linecap:round;stroke-linejoin:round;stroke-miterlimit:10;" d="&#10;&#9;&#9;M222.952,504.5c0,0,38.465-56.079,109.659-71.689c139.048-30.488,151.938-68.243,168.032-128.67"/>
	<path style="fill:none;stroke:#000000;stroke-width:15;stroke-linecap:round;stroke-linejoin:round;stroke-miterlimit:10;" d="&#10;&#9;&#9;M438.919,334.087c15.532-18.643,21.78-40.188,28.603-65.809"/>
	<path style="fill:none;stroke:#000000;stroke-width:15;stroke-linecap:round;stroke-linejoin:round;stroke-miterlimit:10;" d="&#10;&#9;&#9;M189.831,468.638c0,0,38.465-56.079,109.659-71.689c54.024-11.846,89.004-24.788,112.527-39.731"/>
	<path style="fill:none;stroke:#000000;stroke-width:15;stroke-linecap:round;stroke-linejoin:round;stroke-miterlimit:10;" d="&#10;&#9;&#9;M296.969,349.983c106.809-29.047,118.801-65.26,133.445-120.246"/>
	<g>
		
			<line style="fill:none;stroke:#000000;stroke-width:15;stroke-linecap:round;stroke-linejoin:round;stroke-miterlimit:10;" x1="106.982" y1="454.539" x2="106.982" y2="482.736"/>
		
			<line style="fill:none;stroke:#000000;stroke-width:15;stroke-linecap:round;stroke-linejoin:round;stroke-miterlimit:10;" x1="121.08" y1="468.638" x2="92.884" y2="468.638"/>
	</g>
	
		<line style="fill:none;stroke:#000000;stroke-width:15;stroke-linecap:round;stroke-linejoin:round;stroke-miterlimit:10;" x1="290.517" y1="120.114" x2="290.517" y2="120.114"/>
	
		<line style="fill:none;stroke:#000000;stroke-width:15;stroke-linecap:round;stroke-linejoin:round;stroke-miterlimit:10;" x1="451.645" y1="468.638" x2="451.645" y2="468.638"/>
</g>















</svg>
