<?xml version="1.0" encoding="UTF-8" standalone="no"?>
<!-- Created with Inkscape (http://www.inkscape.org/) -->

<svg
   version="1.1"
   id="svg750"
   xml:space="preserve"
   width="682.66669"
   height="682.66669"
   viewBox="0 0 682.66669 682.66669"
   xmlns="http://www.w3.org/2000/svg"
   xmlns:svg="http://www.w3.org/2000/svg"><defs
     id="defs754"><clipPath
       clipPathUnits="userSpaceOnUse"
       id="clipPath764"><path
         d="M 0,512 H 512 V 0 H 0 Z"
         id="path762" /></clipPath></defs><g
     id="g756"
     transform="matrix(1.3333333,0,0,-1.3333333,0,682.66667)"><g
       id="g758"><g
         id="g760"
         clip-path="url(#clipPath764)"><g
           id="g766"
           transform="translate(336.5674,7.5)"><path
             d="m 0,0 h -161.135 c -92.746,0 -167.932,75.186 -167.932,167.933 v 161.134 c 0,92.747 75.186,167.933 167.932,167.933 H 0 c 92.747,0 167.933,-75.186 167.933,-167.933 V 167.933 C 167.933,75.186 92.747,0 0,0 Z"
             style="fill:none;stroke:#000000;stroke-width:15;stroke-linecap:round;stroke-linejoin:round;stroke-miterlimit:10;stroke-dasharray:none;stroke-opacity:1"
             id="path768" /></g><g
           id="g770"
           transform="translate(222.9111,35.5)"><path
             d="m 0,0 h 113.656 c 77.159,0 139.933,62.773 139.933,139.933 V 301.067 C 253.589,378.227 190.815,441 113.656,441 H -47.479 c -77.159,0 -139.932,-62.773 -139.932,-139.933 V 139.933 C -187.411,62.773 -124.638,0 -47.479,0 h 12.269"
             style="fill:none;stroke:#000000;stroke-width:15;stroke-linecap:round;stroke-linejoin:round;stroke-miterlimit:10;stroke-dasharray:none;stroke-opacity:1"
             id="path772" /></g><g
           id="g774"
           transform="translate(168.5166,289.6777)"><path
             d="m 0,0 -23.823,-14.904 c -13.867,-8.675 -13.867,-28.873 0,-37.548 l 77.417,-48.431 c 14.749,-9.227 33.889,1.377 33.889,18.774 v 96.862 c 0,17.398 -19.14,28.001 -33.889,18.774 L 28.418,17.778"
             style="fill:none;stroke:#000000;stroke-width:15;stroke-linecap:round;stroke-linejoin:round;stroke-miterlimit:10;stroke-dasharray:none;stroke-opacity:1"
             id="path776" /></g><g
           id="g778"
           transform="translate(377.707,207.5688)"><path
             d="m 0,0 v 96.862 c 0,17.398 -19.141,28.001 -33.89,18.774 l -77.417,-48.431 c -13.867,-8.675 -13.867,-28.873 0,-37.548 L -33.89,-18.774 C -19.141,-28.001 0,-17.397 0,0 Z"
             style="fill:none;stroke:#000000;stroke-width:15;stroke-linecap:round;stroke-linejoin:round;stroke-miterlimit:10;stroke-dasharray:none;stroke-opacity:1"
             id="path780" /></g><g
           id="g782"
           transform="translate(256,269.8501)"><path
             d="m 0,0 v -27.7 h -55.94 c -3.82,0 -7.29,1.55 -9.8,4.06 -2.51,2.5 -4.06,5.97 -4.06,9.79 0,7.65 6.21,13.85 13.86,13.85 z"
             style="fill:none;stroke:#000000;stroke-width:15;stroke-linecap:round;stroke-linejoin:round;stroke-miterlimit:10;stroke-dasharray:none;stroke-opacity:1"
             id="path784" /></g></g></g></g></svg>
